#!OML:ASF F:\VICON\USERDATA\INSTALL\rory3\rory3.ASF
:FULLY-SPECIFIED
:DEGREES
758
root 5.01767 16.5623 2.06798 5.83856 -14.0285 -7.35603
lowerback 20.0433 -0.687756 4.26134
upperback 4.57522 0.0368377 1.52644
thorax -6.24039 -0.0561542 -0.792108
lowerneck -14.3224 -0.322015 -2.17396
upperneck 36.9872 0.49668 -1.33048
head 15.3734 -0.354996 -0.113215
rclavicle 1.58034e-014 1.98785e-015
rhumerus -36.7239 -1.98711 -8.18936
rradius 27.4963
rwrist 12.368
rhand -23.5968 -51.0242
rfingers 7.12502
rthumb 2.86673 -80.9847
lclavicle 1.58034e-014 1.98785e-015
lhumerus -34.5337 -1.75542 2.46891
lradius 24.23
lwrist 10.8664
lhand -24.1346 -32.4012
lfingers 7.12502
lthumb 2.34738 -2.43437
rfemur -102.016 1.40526 28.2626
rtibia 98.9263
rfoot 49.62 5.36164
rtoes -2.47153
lfemur -30.3998 3.16531 -23.0454
ltibia 49.5992
lfoot -21.7814 9.91545
ltoes 15.7952
759
root 5.01732 16.5661 2.07475 5.87702 -14.0121 -7.37784
lowerback 19.9173 -0.71178 4.30258
upperback 4.60755 0.00506077 1.52359
thorax -6.14002 -0.0700469 -0.811453
lowerneck -14.4698 -0.318053 -2.15251
upperneck 37.0545 0.506276 -1.34235
head 15.4418 -0.351232 -0.121434
rclavicle -4.50247e-014 6.75868e-015
rhumerus -36.6045 -2.03915 -8.22758
rradius 27.4281
rwrist 12.3502
rhand -23.6265 -50.9174
rfingers 7.12502
rthumb 2.83806 -80.8782
lclavicle -4.50247e-014 6.75868e-015
lhumerus -34.6862 -1.9314 2.55686
lradius 24.257
lwrist 11.3528
lhand -24.0711 -31.7297
lfingers 7.12502
lthumb 2.40867 -1.76357
rfemur -102.017 1.39944 28.2796
rtibia 98.9547
rfoot 49.4624 5.62171
rtoes -3.17661
lfemur -30.3908 3.15799 -23.0276
ltibia 49.5931
lfoot -21.8071 9.91567
ltoes 15.8844
760
root 5.01388 16.5657 2.07009 5.91315 -14.0712 -7.42575
lowerback 19.9827 -0.67088 4.26778
upperback 4.55239 0.0599779 1.55874
thorax -6.23216 -0.0449898 -0.766933
lowerneck -14.3249 -0.296466 -2.08011
upperneck 37.0306 0.558001 -1.46894
head 15.3963 -0.336044 -0.178691
rclavicle 3.21037e-014 -3.69739e-014
rhumerus -36.6222 -1.90864 -8.23767
rradius 27.4619
rwrist 12.2452
rhand -23.5824 -50.981
rfingers 7.12502
rthumb 2.88061 -80.9413
lclavicle 3.21037e-014 -3.69739e-014
lhumerus -34.7408 -2.01834 2.59225
lradius 24.2503
lwrist 11.266
lhand -24.124 -31.8329
lfingers 7.12502
lthumb 2.35764 -1.86615
rfemur -102.02 1.54335 28.3119
rtibia 98.9102
rfoot 49.4272 5.62475
rtoes -3.44422
lfemur -30.4579 3.25381 -22.9591
ltibia 49.6098
lfoot -21.7702 9.8806
ltoes 15.9752
761
root 5.01187 16.5653 2.06466 5.97405 -14.0592 -7.45406
lowerback 20.0116 -0.663298 4.25185
upperback 4.49315 0.0732653 1.58826
thorax -6.31121 -0.0400119 -0.729007
lowerneck -14.0734 -0.244467 -1.97425
upperneck 36.935 0.658706 -1.64509
head 15.2908 -0.300946 -0.253549
rclavicle -7.55382e-015 -7.15625e-015
rhumerus -36.6609 -1.66929 -8.29992
rradius 27.5833
rwrist 12.0916
rhand -23.4092 -51.2601
rfingers 7.12502
rthumb 3.0479 -81.218
lclavicle -7.55382e-015 -7.15625e-015
lhumerus -34.7895 -2.20144 2.68783
lradius 24.1426
lwrist 11.558
lhand -24.1172 -31.1637
lfingers 7.12502
lthumb 2.36413 -1.19704
rfemur -102.062 1.61275 28.3244
rtibia 98.849
rfoot 49.529 5.27178
rtoes -3.13618
lfemur -30.5839 3.26751 -22.9091
ltibia 49.6322
lfoot -21.7397 9.7991
ltoes 16.2863
762
root 5.01276 16.5672 2.06438 6.01397 -14.0731 -7.51808
lowerback 19.9714 -0.670306 4.33804
upperback 4.50234 0.0793231 1.59525
thorax -6.2793 -0.0377145 -0.772119
lowerneck -13.9576 -0.205719 -1.87459
upperneck 36.843 0.732896 -1.78412
head 15.2197 -0.273069 -0.316237
rclavicle -4.99943e-014 7.95139e-016
rhumerus -36.6115 -1.66443 -8.32307
rradius 27.5114
rwrist 12.1321
rhand -23.3428 -51.4357
rfingers 7.12502
rthumb 3.11204 -81.3927
lclavicle -4.99943e-014 7.95139e-016
lhumerus -34.8558 -2.36775 2.79576
lradius 24.0844
lwrist 11.9519
lhand -24.2003 -30.0009
lfingers 7.12502
lthumb 2.2839 -0.0334094
rfemur -102.033 1.66207 28.3798
rtibia 98.8088
rfoot 49.5324 5.17915
rtoes -3.03953
lfemur -30.6166 3.29217 -22.847
ltibia 49.6454
lfoot -21.7197 9.804
ltoes 16.0653
763
root 5.0129 16.5699 2.06501 5.99609 -14.1841 -7.60568
lowerback 20.0249 -0.658159 4.41138
upperback 4.55131 0.109328 1.58181
thorax -6.25266 -0.0236925 -0.835661
lowerneck -14.0336 -0.167932 -1.74426
upperneck 36.8247 0.787741 -1.88076
head 15.2296 -0.245289 -0.371036
rclavicle 1.33186e-014 7.95139e-015
rhumerus -36.5226 -1.87289 -8.34558
rradius 27.4074
rwrist 12.1356
rhand -23.2873 -51.4956
rfingers 7.12502
rthumb 3.16561 -81.4518
lclavicle 1.33186e-014 7.95139e-015
lhumerus -34.8957 -2.31395 2.7577
lradius 24.1504
lwrist 11.9206
lhand -24.2803 -29.0093
lfingers 7.12502
lthumb 2.20662 0.959081
rfemur -101.925 1.78781 28.4439
rtibia 98.8265
rfoot 49.4603 5.09206
rtoes -2.74677
lfemur -30.5491 3.42593 -22.7641
ltibia 49.6407
lfoot -21.6802 9.8859
ltoes 15.4396
